<svg xmlns="http://www.w3.org/2000/svg" xmlns:xlink="http://www.w3.org/1999/xlink" width="780" height="150" viewBox="0 0 780 150"><defs><clipPath id="clip-path"><rect id="Rectangle_148097" width="780" height="150" fill="#f9de67" data-name="Rectangle 148097" rx="4"/></clipPath></defs><g id="Group_142245" data-name="Group 142245" transform="translate(-331 -753)"><rect id="Rectangle_147970" width="780" height="150" fill="#0e8a92" data-name="Rectangle 147970" rx="4" transform="translate(331 753)"/><g id="Mask_Group_21" clip-path="url(#clip-path)" data-name="Mask Group 21" transform="translate(331 753)"><g id="Group_142222" data-name="Group 142222" transform="translate(192.211 28.868)"><rect id="Rectangle_147971" width="388.614" height="273.294" fill="#030504" data-name="Rectangle 147971" opacity=".2" transform="translate(6.945 6.765)"/><rect id="Rectangle_147972" width="388.614" height="274.8" fill="#fff" data-name="Rectangle 147972"/><rect id="Rectangle_147973" width="388.614" height="247.926" fill="#021833" data-name="Rectangle 147973" transform="translate(0 13.436)"/><circle id="Ellipse_20194" cx="3.124" cy="3.124" r="3.124" fill="#92a444" data-name="Ellipse 20194" transform="translate(373.555 4.087)"/><circle id="Ellipse_20195" cx="3.124" cy="3.124" r="3.124" fill="#ffb807" data-name="Ellipse 20195" transform="translate(363.859 4.087)"/><circle id="Ellipse_20196" cx="3.124" cy="3.124" r="3.124" fill="#e6535d" data-name="Ellipse 20196" transform="translate(354.163 4.087)"/><g id="Group_142227" data-name="Group 142227" transform="translate(34.703 30.46)"><rect id="Rectangle_147975" width="83.827" height="5.692" fill="#6cbb45" data-name="Rectangle 147975" rx="2.846"/><rect id="Rectangle_147976" width="48.686" height="5.692" fill="#6cbb45" data-name="Rectangle 147976" rx="2.846" transform="translate(9.808 10.906)"/><rect id="Rectangle_147977" width="54.387" height="5.692" fill="#6cbb45" data-name="Rectangle 147977" rx="2.846" transform="translate(34.448 28.577)"/><rect id="Rectangle_147978" width="83.827" height="5.692" fill="#6cbb45" data-name="Rectangle 147978" rx="2.846" transform="translate(35.439 40.898)"/><rect id="Rectangle_147979" width="34.209" height="5.692" fill="#6cbb45" data-name="Rectangle 147979" rx="2.846" transform="translate(9.808 53.216)"/><rect id="Rectangle_147980" width="53.716" height="5.692" fill="#6cbb45" data-name="Rectangle 147980" rx="2.846" transform="translate(9.808 65.535)"/><rect id="Rectangle_147981" width="19.816" height="5.692" fill="#6cbb45" data-name="Rectangle 147981" rx="2.846" transform="translate(33.51 77.855)"/><rect id="Rectangle_147982" width="83.827" height="5.692" fill="#6cbb45" data-name="Rectangle 147982" rx="2.846" transform="translate(79.832 10.906)"/><rect id="Rectangle_147983" width="50.066" height="5.692" fill="#6cbb45" data-name="Rectangle 147983" rx="2.846" transform="translate(102.596 28.577)"/><rect id="Rectangle_147984" width="35.828" height="5.692" fill="#6cbb45" data-name="Rectangle 147984" rx="2.846" transform="translate(135.136 40.898)"/><rect id="Rectangle_147985" width="83.827" height="5.692" fill="#6cbb45" data-name="Rectangle 147985" rx="2.846" transform="translate(63.371 53.216)"/><rect id="Rectangle_147986" width="41.913" height="5.692" fill="#6cbb45" data-name="Rectangle 147986" rx="2.846" transform="translate(82.827 65.535)"/><rect id="Rectangle_147987" width="37.837" height="5.692" fill="#6cbb45" data-name="Rectangle 147987" rx="2.846" transform="translate(63.364 77.855)"/><rect id="Rectangle_147988" width="56.114" height="5.692" fill="#6cbb45" data-name="Rectangle 147988" rx="2.846" transform="translate(179.711 10.906)"/><rect id="Rectangle_147989" width="56.114" height="5.692" fill="#6cbb45" data-name="Rectangle 147989" rx="2.846" transform="translate(276.17 28.577)"/><rect id="Rectangle_147990" width="83.827" height="5.692" fill="#6cbb45" data-name="Rectangle 147990" rx="2.846" transform="translate(171.13 28.577)"/><rect id="Rectangle_147991" width="83.827" height="5.692" fill="#6cbb45" data-name="Rectangle 147991" rx="2.846" transform="translate(189.043 40.898)"/><rect id="Rectangle_147992" width="32.598" height="5.692" fill="#6cbb45" data-name="Rectangle 147992" rx="2.846" transform="translate(161.854 53.216)"/><rect id="Rectangle_147993" width="57.36" height="5.692" fill="#6cbb45" data-name="Rectangle 147993" rx="2.846" transform="translate(115.636 77.855)"/></g><rect id="Rectangle_147994" width="60.684" height="5.692" fill="#fff" data-name="Rectangle 147994" rx="2.846" transform="translate(34.703 125.365)"/><rect id="Rectangle_147995" width="48.686" height="5.692" fill="#fff" data-name="Rectangle 147995" rx="2.846" transform="translate(44.511 137.685)"/><rect id="Rectangle_147996" width="54.387" height="5.692" fill="#fff" data-name="Rectangle 147996" rx="2.846" transform="translate(69.151 150.004)"/><rect id="Rectangle_147997" width="83.827" height="5.692" fill="#fff" data-name="Rectangle 147997" rx="2.846" transform="translate(70.142 162.323)"/><rect id="Rectangle_147998" width="34.209" height="5.692" fill="#fff" data-name="Rectangle 147998" rx="2.846" transform="translate(169.665 214.735)"/><rect id="Rectangle_147999" width="53.716" height="5.692" fill="#fff" data-name="Rectangle 147999" rx="2.846" transform="translate(44.511 186.963)"/><rect id="Rectangle_148000" width="19.816" height="5.692" fill="#fff" data-name="Rectangle 148000" rx="2.846" transform="translate(68.213 199.282)"/><rect id="Rectangle_148001" width="83.827" height="5.692" fill="#fff" data-name="Rectangle 148001" rx="2.846" transform="translate(114.535 137.685)"/><rect id="Rectangle_148002" width="50.066" height="5.692" fill="#fff" data-name="Rectangle 148002" rx="2.846" transform="translate(137.299 150.004)"/><rect id="Rectangle_148003" width="35.828" height="5.692" fill="#fff" data-name="Rectangle 148003" rx="2.846" transform="translate(169.84 162.323)"/><rect id="Rectangle_148004" width="83.827" height="5.692" fill="#fff" data-name="Rectangle 148004" rx="2.846" transform="translate(219.705 214.735)"/><rect id="Rectangle_148005" width="41.913" height="5.692" fill="#fff" data-name="Rectangle 148005" rx="2.846" transform="translate(117.53 186.963)"/><rect id="Rectangle_148006" width="53.716" height="5.692" fill="#fff" data-name="Rectangle 148006" rx="2.846" transform="translate(43.107 214.735)"/><rect id="Rectangle_148007" width="41.913" height="5.692" fill="#fff" data-name="Rectangle 148007" rx="2.846" transform="translate(115.924 214.735)"/><rect id="Rectangle_148008" width="37.837" height="5.692" fill="#fff" data-name="Rectangle 148008" rx="2.846" transform="translate(98.067 199.282)"/><rect id="Rectangle_148009" width="56.114" height="5.692" fill="#fff" data-name="Rectangle 148009" rx="2.846" transform="translate(214.414 137.685)"/><rect id="Rectangle_148010" width="37.3" height="5.692" fill="#fff" data-name="Rectangle 148010" rx="2.846" transform="translate(219.023 162.323)"/><rect id="Rectangle_148011" width="35.828" height="5.692" fill="#fff" data-name="Rectangle 148011" rx="2.846" transform="translate(111.094 174.644)"/><rect id="Rectangle_148012" width="37.3" height="5.692" fill="#fff" data-name="Rectangle 148012" rx="2.846" transform="translate(160.242 174.644)"/><rect id="Rectangle_148013" width="32.598" height="5.692" fill="#fff" data-name="Rectangle 148013" rx="2.846" transform="translate(67.642 174.644)"/><rect id="Rectangle_148014" width="57.36" height="5.692" fill="#fff" data-name="Rectangle 148014" rx="2.846" transform="translate(150.339 199.282)"/></g></g></g></svg>